<svg width="512" height="496" viewBox="0 0 512 496" fill="none" xmlns="http://www.w3.org/2000/svg">
<path d="M249.4 9.39999C261.9 -3.10001 282.2 -3.10001 294.7 9.39999C307.2 21.9 307.2 42.2 294.7 54.7L269.3 80H416C469 80 512 123 512 176V208C512 225.7 497.7 240 480 240C462.3 240 448 225.7 448 208V176C448 158.3 433.7 144 416 144H269.3L294.7 169.4C307.2 181.9 307.2 202.2 294.7 214.7C282.2 227.2 261.9 227.2 249.4 214.7L169.4 134.7C156.9 122.2 156.9 101.9 169.4 89.4L249.4 9.39999V9.39999ZM262.7 265.4L342.7 345.4C355.2 357.9 355.2 378.2 342.7 390.7L262.7 470.7C250.2 483.2 229.9 483.2 217.4 470.7C204.9 458.2 204.9 437.9 217.4 425.4L242.7 400H96C78.3 400 64 414.3 64 432V464C64 481.7 49.7 496 32 496C14.3 496 0 481.7 0 464V432C0 379 43 336 96 336H242.7L217.3 310.6C204.8 298.1 204.8 277.8 217.3 265.3C229.8 252.8 250.1 252.8 262.6 265.3L262.7 265.4ZM512 368C512 403.3 483.3 432 448 432C412.7 432 384 403.3 384 368C384 332.7 412.7 304 448 304C483.3 304 512 332.7 512 368ZM64 48C99.3 48 128 76.7 128 112C128 147.3 99.3 176 64 176C28.7 176 0 147.3 0 112C0 76.7 28.7 48 64 48Z" fill="#2B4BC9"/>
</svg>
