<svg width="512" height="448" viewBox="0 0 512 448" fill="none" xmlns="http://www.w3.org/2000/svg">
<path d="M32 0C49.7 0 64 14.3 64 32V368C64 376.8 71.2 384 80 384H480C497.7 384 512 398.3 512 416C512 433.7 497.7 448 480 448H80C35.8 448 0 412.2 0 368V32C0 14.3 14.3 0 32 0ZM160 192C177.7 192 192 206.3 192 224V288C192 305.7 177.7 320 160 320C142.3 320 128 305.7 128 288V224C128 206.3 142.3 192 160 192ZM288 128V288C288 305.7 273.7 320 256 320C238.3 320 224 305.7 224 288V128C224 110.3 238.3 96 256 96C273.7 96 288 110.3 288 128ZM352 160C369.7 160 384 174.3 384 192V288C384 305.7 369.7 320 352 320C334.3 320 320 305.7 320 288V192C320 174.3 334.3 160 352 160ZM480 64V288C480 305.7 465.7 320 448 320C430.3 320 416 305.7 416 288V64C416 46.3 430.3 32 448 32C465.7 32 480 46.3 480 64Z" fill="#3151CF"/>
</svg>
