<svg width="512" height="449" viewBox="0 0 512 449" fill="none" xmlns="http://www.w3.org/2000/svg">
<path d="M256 416C397.4 416 512 322.9 512 208C512 93.1 397.4 0 256 0C114.6 0 -4.81829e-05 93.1 -4.81829e-05 208C-4.81829e-05 253.1 17.7 294.8 47.7 328.9C45.8 353.4 36.3 375.2 26.3 391.8C20.8 401 15.2 408.4 11.1 413.4C8.99995 415.9 7.39995 417.8 6.19995 419.1C5.59995 419.7 5.19995 420.2 4.89995 420.5L4.59995 420.8C-4.81606e-05 425.4 -1.30005 432.2 1.19995 438.2C3.69995 444.2 9.49995 448.1 16 448.1C44.7 448.1 73.6 439.2 97.6 428.8C120.5 418.8 140 406.9 151.9 398.2C183.7 409.7 218.9 416.1 256 416.1V416ZM128 240C110.3 240 96 225.7 96 208C96 190.3 110.3 176 128 176C145.7 176 160 190.3 160 208C160 225.7 145.7 240 128 240ZM256 240C238.3 240 224 225.7 224 208C224 190.3 238.3 176 256 176C273.7 176 288 190.3 288 208C288 225.7 273.7 240 256 240ZM416 208C416 225.7 401.7 240 384 240C366.3 240 352 225.7 352 208C352 190.3 366.3 176 384 176C401.7 176 416 190.3 416 208Z" fill="#2E4ECC"/>
</svg>
