<svg width="640" height="448" viewBox="0 0 640 448" fill="none" xmlns="http://www.w3.org/2000/svg">
<path d="M184 56C184 86.9 158.9 112 128 112C97.1 112 72 86.9 72 56C72 25.1 97.1 0 128 0C158.9 0 184 25.1 184 56ZM64 213.7C54 224.9 48 239.8 48 256C48 272.2 54 287.1 64 298.3V213.7ZM208.4 164.4C178.7 190.7 160 229.2 160 272C160 306.3 172 337.8 192 362.5V384C192 401.7 177.7 416 160 416H96C78.3 416 64 401.7 64 384V357.2C26.2 339.2 0 300.7 0 256C0 194.1 50.1 144 112 144H144C168 144 190.2 151.5 208.4 164.3V164.4ZM448 384V362.5C468 337.8 480 306.3 480 272C480 229.2 461.3 190.7 431.6 164.3C449.8 151.5 472 144 496 144H528C589.9 144 640 194.1 640 256C640 300.7 613.8 339.2 576 357.2V384C576 401.7 561.7 416 544 416H480C462.3 416 448 401.7 448 384ZM568 56C568 86.9 542.9 112 512 112C481.1 112 456 86.9 456 56C456 25.1 481.1 0 512 0C542.9 0 568 25.1 568 56ZM576 213.7V298.4C586 287.1 592 272.3 592 256.1C592 239.9 586 225 576 213.8V213.7ZM320 128C284.7 128 256 99.3 256 64C256 28.7 284.7 0 320 0C355.3 0 384 28.7 384 64C384 99.3 355.3 128 320 128ZM240 272C240 288.2 246 303 256 314.3V229.7C246 241 240 255.8 240 272ZM384 229.7V314.4C394 303.1 400 288.3 400 272.1C400 255.9 394 241 384 229.8V229.7ZM448 272C448 316.7 421.8 355.2 384 373.2V416C384 433.7 369.7 448 352 448H288C270.3 448 256 433.7 256 416V373.2C218.2 355.2 192 316.7 192 272C192 210.1 242.1 160 304 160H336C397.9 160 448 210.1 448 272Z" fill="#2B4BC9"/>
</svg>
