<svg width="448" height="448" viewBox="0 0 448 448" fill="none" xmlns="http://www.w3.org/2000/svg">
<path d="M64 0C28.7 0 0 28.7 0 64V384C0 419.3 28.7 448 64 448H384C419.3 448 448 419.3 448 384V64C448 28.7 419.3 0 384 0H64ZM143 143C152.4 133.6 167.6 133.6 176.9 143L223.9 190L270.9 143C280.3 133.6 295.5 133.6 304.8 143C314.1 152.4 314.2 167.6 304.8 176.9L257.8 223.9L304.8 270.9C314.2 280.3 314.2 295.5 304.8 304.8C295.4 314.1 280.2 314.2 270.9 304.8L223.9 257.8L176.9 304.8C167.5 314.2 152.3 314.2 143 304.8C133.7 295.4 133.6 280.2 143 270.9L190 223.9L143 176.9C133.6 167.5 133.6 152.3 143 143V143Z" fill="#3151CF"/>
</svg>
