<svg width="512" height="512" viewBox="0 0 512 512" fill="none" xmlns="http://www.w3.org/2000/svg">
<path d="M441 7.00001L473 39L505 71C514.4 80.4 514.4 95.6 505 104.9C495.6 114.2 480.4 114.3 471.1 104.9L456.1 89.9L417.9 128L472.9 183C482.3 192.4 482.3 207.6 472.9 216.9C463.5 226.2 448.3 226.3 439 216.9L367 144.9L295 73C285.6 63.6 285.6 48.4 295 39.1C304.4 29.8 319.6 29.7 328.9 39.1L383.9 94.1L422.1 56L407 41C397.6 31.6 397.6 16.4 407 7.10001C416.4 -2.19999 431.6 -2.29999 440.9 7.10001L441 7.00001ZM210.3 155.7L271.4 94.6C271.7 94.9 272 95.3 272.4 95.6L288.4 111.6L344.4 167.6L400.4 223.6L416.4 239.6C416.7 239.9 417 240.2 417.4 240.6L226.4 431.6C215.9 442.1 201.7 448 186.8 448H97.9L41 505C31.6 514.4 16.4 514.4 7.09995 505C-2.20005 495.6 -2.30005 480.4 7.09995 471.1L64.1 414.1V325.3C64.1 310.4 70 296.2 80.5 285.7L123.8 242.4L180.8 299.4C187 305.6 197.2 305.6 203.4 299.4C209.6 293.2 209.6 283 203.4 276.8L146.4 219.8L187.8 178.4L244.8 235.4C251 241.6 261.2 241.6 267.4 235.4C273.6 229.2 273.6 219 267.4 212.8L210.4 155.8L210.3 155.7Z" fill="#3050CE"/>
</svg>
